# xmcd CD database file
# Copyright (C) 1993-1996 Ti Kan
#
# Track frame offsets:
# 150
# 13590
# 27865
# 44122
# 60515
# 77442
# 92632
# 103267
# 119537
# 133247
#
# Disc length: 1933 seconds
#
# Revision: 0
# Processed by: cddbd v1.5.2PL0 Copyright (c) Steve Scherf et al.
# Submitted via: inCDius 1.1b5
#
DISCID=83078b0a
DTITLE=Ray Price  - Sometimes A Rose
DYEAR=1992
DGENRE=Country
TTITLE0=Somebody Almost Loved Me
TTITLE1=I Apologize
TTITLE2=There's Not A Dry Eye In The House
TTITLE3=You Need A Lady In your Life
TTITLE4=When The Blues Hit Town
TTITLE5=What Am I Gonna Do Without You
TTITLE6=A Way To Free Myself
TTITLE7=Sometimes A Rose
TTITLE8=Look What Followed Me Home
TTITLE9=Please Don't Leave Me
EXTD=
EXTT0=
EXTT1=
EXTT2=
EXTT3=
EXTT4=
EXTT5=
EXTT6=
EXTT7=
EXTT8=
EXTT9=
PLAYORDER=
